<svg id="icons" width="53" height="53" fill="#ffffff" viewBox="0 0 24 24" xmlns="http://www.w3.org/2000/svg">
       <path d="M7.2 14.857c.178 2 1.816 3.42 4.31 3.604v1.46h1.251v-1.46c2.724-.215 4.414-1.726 4.414-3.96 0-1.908-1.137-3.012-3.548-3.634l-.866-.224V6.081c1.346.132 2.255.856 2.484 1.939h1.764c-.2-1.92-1.848-3.298-4.248-3.45V3.12h-1.252V4.6c-2.326.276-3.924 1.766-3.924 3.787 0 1.745 1.16 2.98 3.194 3.5l.732.195v4.837c-1.38-.204-2.328-.96-2.558-2.062H7.2Zm4.07-4.603c-1.252-.315-1.92-.99-1.92-1.94 0-1.132.844-1.968 2.16-2.193v4.194l-.24-.06Zm1.909 2.247c1.544.387 2.222 1.03 2.222 2.122 0 1.317-.991 2.194-2.64 2.327v-4.554l.418.103v.002Z"></path>
</svg>